<?xml version="1.0" encoding="UTF-8" standalone="no"?>
<!-- Created with Inkscape (http://www.inkscape.org/) -->

<svg
   width="132.60208mm"
   height="167.38486mm"
   viewBox="0 0 132.60208 167.38486"
   version="1.1"
   id="svg5"
   xml:space="preserve"
   inkscape:version="1.2 (dc2aeda, 2022-05-15)"
   sodipodi:docname="characters.svg"
   xmlns:inkscape="http://www.inkscape.org/namespaces/inkscape"
   xmlns:sodipodi="http://sodipodi.sourceforge.net/DTD/sodipodi-0.dtd"
   xmlns="http://www.w3.org/2000/svg"
   xmlns:svg="http://www.w3.org/2000/svg"><sodipodi:namedview
     id="namedview7"
     pagecolor="#ffffff"
     bordercolor="#000000"
     borderopacity="0.25"
     inkscape:showpageshadow="2"
     inkscape:pageopacity="0.0"
     inkscape:pagecheckerboard="0"
     inkscape:deskcolor="#d1d1d1"
     inkscape:document-units="mm"
     showgrid="false"
     inkscape:zoom="0.64119597"
     inkscape:cx="-1889.438"
     inkscape:cy="1677.3343"
     inkscape:window-width="1680"
     inkscape:window-height="997"
     inkscape:window-x="0"
     inkscape:window-y="25"
     inkscape:window-maximized="1"
     inkscape:current-layer="g4549"
     showguides="true"><inkscape:grid
       type="xygrid"
       id="grid2180" /><sodipodi:guide
       position="128.4991,-8.2435314"
       orientation="0,-1"
       id="guide36130"
       inkscape:locked="false" /></sodipodi:namedview><defs
     id="defs2" /><g
     id="g4551"
     transform="translate(374.65544,-79.140871)"
     inkscape:export-filename="../Desktop/bot_3_color.svg"
     inkscape:export-xdpi="195.92885"
     inkscape:export-ydpi="195.92885"
     style="display:inline"><g
       inkscape:groupmode="layer"
       id="g4507"
       inkscape:label="body"><path
         style="opacity:1;fill:#d3ddeb;fill-opacity:1;stroke:#000000;stroke-width:1.858;stroke-linecap:round;stroke-dasharray:none"
         d="m -278.43527,231.20004 c -8.29543,9.75048 -20.00751,14.27434 -29.46623,14.39631 -6.32015,-0.40228 -15.28041,-1.33822 -22.55648,-6.99498 -12.57591,-9.7771 -24.0342,-31.67273 -24.25768,-44.64413 -0.36612,-21.25069 28.40264,-29.73711 45.77214,-32.07082 18.07268,1.35639 46.4063,12.4128 48.01656,28.4875 -1.377,13.74338 -10.00445,31.70772 -17.50831,40.82612 z"
         id="path26558" /><path
         style="opacity:1;fill:#eef4fb;fill-opacity:1;stroke:none;stroke-width:1.258;stroke-linecap:round;stroke-dasharray:none"
         d="m -323.12337,231.50561 c -23.972,-3.4755 -29.6851,-24.34928 -29.44212,-38.4537 0.33584,-19.49491 22.85747,-28.83178 40.22697,-31.16549 14.22501,1.80906 28.7876,-1.04343 30.13623,17.6235 1.07707,14.90823 -0.59357,33.56928 -8.08802,43.27239 -7.50381,9.71523 -20.83958,10.46213 -32.83306,8.7233 z"
         id="path26560"
         sodipodi:nodetypes="cscssc" /></g><g
       inkscape:groupmode="layer"
       id="g4513"
       inkscape:label="hands"><g
         id="g26554"
         inkscape:label="left"><path
           style="opacity:1;fill:#d0dae8;fill-opacity:1;stroke:#000000;stroke-width:1.258;stroke-linecap:round;stroke-dasharray:none"
           d="m -360.47671,227.92616 c -2.42901,-0.38458 -4.97746,-2.05935 -6.53401,-4.8796 -3.22955,-5.85147 -3.32212,-16.84085 -2.54184,-25.74295 1.09136,-12.45108 8.34009,-19.91188 14.66752,-20.83165 2.21209,-0.10309 3.75082,0.0717 5.09763,1.02464 0.57069,0.40382 1.37346,1.15407 1.70521,1.77333 3.82856,7.14651 1.70334,22.13975 1.3611,24.65682 -1.18298,7.55943 -3.41061,15.31436 -6.43774,19.80449 -2.1129,3.13405 -4.66283,4.34463 -7.31786,4.19488 z"
           id="path26198" /><path
           style="display:inline;opacity:1;fill:#eef4fb;fill-opacity:1;stroke:none;stroke-width:1.258;stroke-linecap:round;stroke-dasharray:none;stroke-opacity:1"
           d="m -367.81093,219.40561 c -1.13678,-4.43444 -1.76283,-13.3984 -1.10147,-22.30205 0.83581,-11.25212 7.85997,-19.07166 14.1874,-19.99143 2.21209,-0.10309 2.6288,-0.45011 4.89759,1.22469 2.26878,1.67481 -0.3088,18.05757 -2.01503,25.42989 -1.70628,7.37231 -2.32904,8.88682 -5.23743,13.88294 -3.52788,6.06029 -9.04296,3.76523 -10.73106,1.75596 z"
           id="path26342"
           sodipodi:nodetypes="csczzsc" /></g><g
         id="g26194"
         inkscape:label="right"><path
           style="opacity:1;fill:#d0dae8;fill-opacity:1;stroke:#000000;stroke-width:1.258;stroke-linecap:round;stroke-dasharray:none"
           d="m -256.56792,228.23241 c 2.42901,-0.38458 4.97746,-2.05935 6.53401,-4.8796 3.22955,-5.85147 3.32212,-16.84085 2.54184,-25.74295 -1.09136,-12.45108 -8.34009,-19.91188 -14.66752,-20.83165 -2.21209,-0.10309 -3.75082,0.0717 -5.09763,1.02464 -0.57069,0.40382 -1.37346,1.15407 -1.70521,1.77333 -3.82856,7.14651 -1.70334,22.13975 -1.3611,24.65682 1.18298,7.55943 3.41061,15.31436 6.43774,19.80449 2.1129,3.13405 4.66283,4.34463 7.31786,4.19488 z"
           id="path24938" /><path
           style="opacity:1;fill:#eef4fb;fill-opacity:1;stroke:none;stroke-width:1.10609;stroke-linecap:round;stroke-dasharray:none"
           d="m -258.50201,220.20445 c 6.8883,-3.41132 7.83364,-15.80934 7.31574,-22.51195 -0.996,-10.5472 -5.37481,-21.28721 -13.92563,-20.11291 -7.05951,0.96949 -5.25832,20.59449 -5.06228,22.74681 0.57511,6.31433 1.87407,13.07843 4.64698,16.88404 1.96208,2.12532 4.84659,4.07293 7.02519,2.99401 z"
           id="path25078"
           sodipodi:nodetypes="scsscs" /></g></g><g
       inkscape:groupmode="layer"
       id="g4545"
       inkscape:label="head"
       style="display:inline"><path
         style="display:inline;fill:#eef4fb;fill-opacity:1;fill-rule:evenodd;stroke:#000000;stroke-width:1.435;stroke-dasharray:none"
         d="m -252.34214,131.59211 c 0,9.93388 1.91756,26.93787 -7.04132,35.38144 -11.31776,10.66675 -33.99806,12.34718 -52.57272,12.34718 -19.18503,0 -37.03183,-2.65981 -47.32346,-13.32838 -7.09261,-7.35237 -6.20099,-24.17683 -6.20099,-33.69835 0,-22.48335 24.09256,-30.5323 57.37051,-30.5323 33.27795,0 55.76798,7.34705 55.76798,29.83041 z"
         id="path3769" /><path
         style="display:inline;fill:#222c3c;fill-opacity:1;fill-rule:evenodd;stroke:#000000;stroke-width:1.435;stroke-dasharray:none"
         d="m -264.73246,134.23218 c 0,7.00329 1.48026,18.99095 -5.43553,24.94358 -8.73672,7.51997 -26.24471,8.70466 -40.58338,8.70466 -14.80983,0 -28.58662,-1.87515 -36.53122,-9.39639 -5.47512,-5.18335 -4.78684,-17.04444 -4.78684,-23.75702 0,-15.85056 18.59819,-21.52499 44.28702,-21.52499 25.68883,0 43.04995,5.1796 43.04995,21.03016 z"
         id="path14517" /></g><g
       inkscape:groupmode="layer"
       id="g4517"
       inkscape:label="mouth"><path
         id="path29253"
         style="display:inline;fill:none;fill-rule:evenodd;stroke:#000000;stroke-width:1.2"
         d="m -300.33542,149.0807 c -0.0861,3.12121 -3.71221,8.07263 -8.2277,8.07263 -4.51549,0 -7.81417,-5.14096 -7.81416,-8.12433 z"
         sodipodi:nodetypes="cscc" /></g><g
       id="g36941"
       inkscape:label="emotions"><g
         inkscape:groupmode="layer"
         id="layer16"
         inkscape:label="excited"
         style="display:none"><g
           id="g36128"
           transform="matrix(0.75964537,0,0,0.77791692,-90.098795,25.147881)"
           style="fill:#fffa57;fill-opacity:1"
           inkscape:label="left"><path
             style="display:inline;fill:#fffa57;fill-opacity:1;fill-rule:evenodd;stroke:#000080;stroke-width:0.135274;stroke-dasharray:none;stroke-opacity:1"
             d="m -411.85304,126.48921 16.90282,7.73483 -2.07065,-8.68773 18.01086,8.15489 -21.99463,-15.23899 2.47515,11.58862 z"
             id="path36103" /><path
             style="display:inline;fill:#fffa57;fill-opacity:1;fill-rule:evenodd;stroke:#000080;stroke-width:0.135274;stroke-dasharray:none;stroke-opacity:1"
             d="m -401.69455,169.66577 15.16083,-10.75554 -8.55653,-2.55927 16.0794,-11.50418 -24.2062,11.40396 11.26992,3.66215 z"
             id="path36110" /><path
             style="display:inline;fill:#fffa57;fill-opacity:1;fill-rule:evenodd;stroke:#000080;stroke-width:0.0693013;stroke-dasharray:none;stroke-opacity:1"
             d="m -378.97676,137.43543 -9.52179,-0.15278 2.75841,3.65048 -10.1281,-0.12198 13.45433,2.62654 -3.54484,-4.9284 z"
             id="path36112" /></g><g
           id="g36123"
           transform="matrix(-0.7596321,0,0,0.77746019,-527.97488,25.199618)"
           style="fill:#fffa57;fill-opacity:1"
           inkscape:label="right"><path
             style="display:inline;fill:#fffa57;fill-opacity:1;fill-rule:evenodd;stroke:#000080;stroke-width:0.135274;stroke-dasharray:none;stroke-opacity:1"
             d="m -411.85304,126.48921 16.90282,7.73483 -2.07065,-8.68773 18.01086,8.15489 -21.99463,-15.23899 2.47515,11.58862 z"
             id="path36114" /><path
             style="display:inline;fill:#fffa57;fill-opacity:1;fill-rule:evenodd;stroke:#000080;stroke-width:0.135274;stroke-dasharray:none;stroke-opacity:1"
             d="m -401.69455,169.66577 15.16083,-10.75554 -8.55653,-2.55927 16.0794,-11.50418 -24.2062,11.40396 11.26992,3.66215 z"
             id="path36116" /><path
             style="display:inline;fill:#fffa57;fill-opacity:1;fill-rule:evenodd;stroke:#000080;stroke-width:0.0693013;stroke-dasharray:none;stroke-opacity:1"
             d="m -378.97676,137.43543 -9.52179,-0.15278 2.75841,3.65048 -10.1281,-0.12198 13.45433,2.62654 -3.54484,-4.9284 z"
             id="path36118" /></g></g><g
         inkscape:groupmode="layer"
         id="layer14"
         inkscape:label="confused"
         style="display:none;stroke:#000080;stroke-width:0.2;stroke-dasharray:none"><path
           d="m -275.94404,119.21754 q 0.0279,-0.11819 0.0985,-0.13188 0.0837,-0.0191 0.11281,0.0147 0.0368,0.0154 -0.005,0.0629 -0.0285,0.0421 -0.20656,0.0542 z m -0.82425,7.62722 q -0.0522,0.0214 -0.0867,-0.0254 -0.0214,-0.0522 -0.0428,-0.10445 -0.0267,-0.0652 -0.0405,-0.13592 -0.0137,-0.0707 -0.0428,-0.10446 0.0498,0.0101 0.0867,0.0255 0.0445,-0.003 0.0308,-0.0737 0.0944,0.007 0.0975,0.0516 -0.002,0.0314 -0.0386,0.0921 -0.0231,0.0552 -0.0356,0.13658 -0.005,0.0629 0.0719,0.13828 z m -0.0896,-10.97373 q -0.0154,0.0368 -0.0575,0.008 -0.0421,-0.0285 -0.0344,-0.0468 0.0154,-0.0368 0.13119,0.0224 0.11584,0.0593 0.24336,-0.0388 l -0.0481,-0.11752 q 0.0968,-0.0244 0.0712,0.0623 -0.0124,0.0814 -0.0231,0.0552 0.0421,0.0284 0.11281,0.0147 0.0706,-0.0137 0.13057,-0.0535 0.06,-0.0398 0.0831,-0.095 0.0362,-0.0605 0.004,-0.1389 0.0921,0.0385 0.15196,-0.001 0.0546,-0.0529 0.21426,-0.0726 0.0261,-0.0107 0.0629,0.005 0.0368,0.0154 0.0107,0.0261 0.0784,-0.0321 0.10918,-0.10569 0.0309,-0.0736 0.16503,-0.007 0.0421,0.0284 0.10746,0.002 0.0784,-0.0321 0.0636,0.0807 0.0985,-0.13188 0.29965,-0.19909 0.0689,0.0938 -0.004,0.1389 -0.06,0.0398 -0.11988,0.0796 0.0843,0.057 0.12889,0.054 0.0575,-0.008 0.10446,-0.0428 0.0415,-0.0475 0.0961,-0.10035 0.0492,-0.0659 0.12759,-0.098 0.0759,-6.4e-4 0.1282,-0.0221 0.0652,-0.0267 0.14662,-0.0144 0.0314,0.002 0.0921,0.0386 0.0736,0.0308 0.0998,0.0201 0.0498,0.0101 0.0968,-0.0244 0.0415,-0.0475 0.0861,-0.0505 0.0314,0.002 0.0291,0.0338 0.0107,0.0261 0.0629,0.005 0.15432,-0.0328 0.22923,0.15005 0.0575,-0.008 0.0784,-0.0321 0.0154,-0.0368 0.0231,-0.0552 0.0154,-0.0368 0.0468,-0.0344 0.0261,-0.0107 0.0998,0.0201 0.0314,0.002 0.0659,0.0493 0.0291,0.0338 0.0475,0.0415 0.0814,0.0124 0.14661,-0.0144 0.073,-0.0452 0.14127,-0.0274 0.0498,0.0101 0.0605,0.0361 0.0107,0.0261 0.0214,0.0523 0.0184,0.008 0.0445,-0.003 0.0207,-0.0237 0.0961,-0.10034 0.006,0.0891 0.0558,0.0991 0.0498,0.0101 0.11285,0.0148 0.0575,-0.008 0.0998,0.0201 0.0498,0.0101 0.0612,0.11217 0.0706,-0.0137 0.16738,-0.0381 0.10446,-0.0428 0.18578,-0.0304 0.0184,0.008 0.0268,0.0653 0.008,0.0575 0.0268,0.0653 0.0184,0.008 0.0523,-0.0214 0.0468,-0.0344 0.0784,-0.0321 0.0368,0.0154 0.0974,0.0516 0.0682,0.0178 0.0736,0.0308 0.0368,0.0154 6.8e-4,0.076 -0.0362,0.0605 6.7e-4,0.076 0.0284,-0.0421 0.0754,-0.0766 0.0677,-0.0582 0.1205,-0.004 0.0107,0.0261 -0.0486,0.14192 -0.0516,0.0975 -0.0147,0.11281 0.0314,0.002 0.07,-0.0897 0.0386,-0.092 0.0201,-0.0998 0.0814,0.0124 0.0766,0.0754 0.003,0.0445 0.0689,0.0938 0.0237,0.0208 0.0921,0.0386 0.0682,0.0177 0.092,0.0385 0.24358,0.29669 0.23609,0.65051 -0.008,0.35382 -0.094,0.66376 -0.11515,0.0167 -0.14662,0.0144 -0.0314,-0.002 -0.0261,0.0107 0.005,0.013 0.0214,0.0522 0.0291,0.0338 0.0167,0.11514 -0.0677,0.0582 -0.12821,0.0221 -0.0475,-0.0415 -0.0944,-0.007 -0.0208,0.0237 0.0344,0.0468 0.0683,0.0177 0.0576,-0.008 0.003,0.0445 -0.0386,0.0921 -0.0338,0.0291 -0.0807,0.0636 -0.0338,0.0291 -0.0493,0.0659 -0.002,0.0314 0.0582,0.0677 -0.0713,-0.0623 -0.13123,-0.0225 -0.0522,0.0214 -0.10148,0.0873 -0.0362,0.0605 -0.0777,0.10814 -0.0415,0.0475 -0.0813,-0.0124 -0.076,6.7e-4 -0.0362,0.0606 0.0398,0.06 0.0191,0.0837 -0.0154,0.0368 -0.06,0.0398 -0.0445,0.003 -0.0707,0.0137 -0.008,0.0184 -0.0439,0.079 -0.0231,0.0552 -0.06,0.0398 -0.0368,-0.0154 -0.0759,6.4e-4 -0.0314,-0.002 -0.0546,0.0529 -0.0154,0.0368 -0.007,0.0944 0.0214,0.0522 -0.005,0.0629 -0.0493,0.0659 -0.14065,0.10334 -0.0914,0.0375 -0.1537,0.1087 -0.0546,0.0529 -0.0516,0.0974 -0.002,0.0315 -0.0178,0.0682 -0.0154,0.0368 -0.0784,0.0321 -0.0629,-0.005 -0.0653,0.0268 -0.0386,0.092 -0.1169,0.12409 -0.0653,0.0268 -0.14297,0.13488 -0.0285,0.0421 -0.0463,0.1105 -0.0231,0.0552 -0.0439,0.0789 -0.0207,0.0237 -0.06,0.0398 -0.0314,-0.002 -0.0707,0.0137 -0.0546,0.0529 -0.12996,0.12944 -0.0754,0.0766 -0.14297,0.13488 -0.0154,0.0368 -0.0493,0.0659 -0.0261,0.0107 -0.0415,0.0475 -0.11988,0.0796 -0.20826,0.16164 -0.0807,0.0636 -0.12993,0.12954 -0.0492,0.0659 -0.0385,0.092 0.0107,0.0261 -0.0647,0.10279 -0.0623,0.0713 -0.1584,0.17168 -0.0961,0.10044 -0.17917,0.19542 -0.0884,0.0819 -0.11686,0.12418 -0.0154,0.0368 0.003,0.0445 0.0184,0.008 -0.0415,0.0475 -0.0653,0.0268 -0.0362,0.0605 0.0421,0.0284 0.0629,0.005 -0.0801,0.13957 -0.11625,0.20013 -0.0415,0.0475 -0.15668,0.0642 0.0452,0.073 0.0144,0.14661 -0.0231,0.0552 0.0605,0.0361 -0.0854,0.12653 -0.008,0.27783 0.0903,0.146 0.097,0.31101 -0.002,0.0314 -0.0386,0.0921 -0.0362,0.0605 -0.0385,0.0921 -0.002,0.0314 0.0375,0.0914 0.0529,0.0546 0.0375,0.0914 -0.002,0.0314 -0.0493,0.0659 -0.0468,0.0344 -0.0546,0.0529 0.008,0.0576 0.0482,0.11751 0.0475,0.0415 0.0321,0.0784 0.0107,0.0261 -0.0285,0.0421 -0.0314,-0.002 -0.0101,0.0498 0.016,0.0391 10e-4,0.15195 -0.007,0.0944 -0.0195,0.17575 -0.0101,0.0498 0.0221,0.12821 0.0268,0.0653 0.0274,0.14126 -0.0131,0.005 -0.0991,0.0558 -0.073,0.0452 -0.005,0.0629 l 0.0653,-0.0268 q 6.8e-4,0.076 0.009,0.13356 0.0274,0.14126 0.0328,0.15432 -0.002,0.0314 -0.0522,0.0214 -0.0421,-0.0284 -0.0529,-0.0546 l -0.0416,0.0475 q -0.0415,0.0475 0.003,0.0445 0.0498,0.0101 0.0736,0.0308 0.0184,0.008 0.0452,0.073 -0.0784,0.0321 -0.11454,0.0926 -0.0415,0.0475 -0.07,0.0897 -0.0284,0.0421 -0.07,0.0897 -0.0468,0.0344 -0.14898,0.0458 -0.0184,-0.008 -0.0314,-0.002 -0.0391,0.016 -0.0707,0.0137 -0.0575,0.008 -0.10212,0.0114 -0.0184,-0.008 -0.0475,-0.0415 -0.0344,-0.0468 -0.0498,-0.0101 -0.0309,0.0736 -0.0439,0.079 0,0 -0.0107,-0.0261 -0.0107,-0.0261 -0.0398,-0.06 -0.0344,-0.0468 -0.10279,-0.0647 -0.0237,-0.0207 -0.0653,0.0268 -0.0285,0.0421 -0.0522,0.0214 -0.10279,-0.0647 -0.30097,0.047 0.0201,-0.0998 -0.0405,-0.13592 -0.0529,-0.0546 -0.16032,-0.0563 -0.0944,-0.007 -0.20418,0.0227 -0.0968,0.0244 -0.146,0.0903 -0.0167,-0.11515 -0.0719,-0.13828 -0.0421,-0.0285 -0.095,-0.0831 -0.0398,-0.06 -0.0605,-0.0361 -0.0208,0.0237 -0.005,0.0629 -0.12353,-0.0409 -0.25471,-0.0634 -0.11819,-0.0279 -0.16699,-0.22132 l 0.19587,-0.0803 q -0.0398,-0.06 -0.10515,-0.0332 -0.0522,0.0214 -0.11751,0.0482 0.0201,-0.0998 10e-4,-0.18346 -0.006,-0.0891 0.13592,-0.0405 -0.0328,-0.15433 -0.0381,-0.16738 -0.005,-0.0131 -0.0903,-0.146 0.057,-0.0843 0.10082,-0.16332 0.0516,-0.0974 0.14534,-0.16633 -0.10279,-0.0647 -0.12118,-0.0723 -0.0184,-0.008 -0.008,0.0184 0.0107,0.0261 0.0137,0.0706 -0.002,0.0314 -0.0807,0.0636 l -0.10701,-0.26115 q 0.073,-0.0452 0.11515,-0.0167 0.0421,0.0284 0.10746,0.002 -0.0819,-0.0884 -0.18943,-0.0901 0.008,-0.0184 0.0884,-0.082 0.0938,-0.0689 0.13957,0.0801 0.0468,-0.0344 0.0254,-0.0867 -0.0137,-0.0707 0.0516,-0.0974 -0.0528,-0.0545 -0.13891,-0.004 -0.0784,0.0321 -0.14897,0.0458 -6.8e-4,-0.076 0.054,-0.12889 0.0677,-0.0582 0.1537,-0.1087 0.0469,-0.0345 0.0231,-0.0552 -0.0237,-0.0207 -0.0498,-0.0101 -0.0214,-0.0522 -6.8e-4,-0.076 0.0154,-0.0368 0.0362,-0.0605 0.0284,-0.0421 0.0308,-0.0736 -0.003,-0.0445 -0.0559,-0.0991 0.0991,-0.0558 0.15967,-0.0197 0.0552,0.0231 0.14127,-0.0274 -0.0214,-0.0522 -0.0736,-0.0308 -0.0391,0.016 -0.0837,0.0191 l -0.0803,-0.19586 q -0.0652,0.0267 -0.0385,0.0921 -0.076,6.8e-4 -0.0529,-0.0546 0.0178,-0.0682 0.0647,-0.1027 -0.11171,-0.19823 -0.10467,-0.29262 0.0147,-0.1128 -0.10936,-0.22968 0.19416,0.0272 0.26434,0.27293 0.0386,-0.0921 0.0754,-0.0766 0.0445,-0.003 0.1205,-0.004 -0.0921,-0.0386 -0.13723,-0.11151 -0.0505,-0.0861 -0.16567,-0.0694 0.0647,-0.10279 0.0409,-0.12354 -0.016,-0.0391 -0.0251,-0.17273 -0.0268,-0.0653 -0.0605,-0.0361 -0.0208,0.0237 0.008,0.0575 -0.0891,0.006 -0.0529,-0.0546 0.0308,-0.0736 -0.0328,-0.15433 0.0439,-0.0791 0.0557,-0.23631 0.10446,-0.0428 0.0985,-0.13188 0.06,-0.0398 0.0968,-0.0244 0.0314,0.002 0.0605,0.0362 0.0368,0.0154 0.0736,0.0308 0.0368,0.0154 0.0759,-6.4e-4 -0.0274,-0.14127 -0.12409,-0.1169 -0.0237,-0.0208 0.0154,-0.0368 0.0468,-0.0344 0.12286,-0.0351 0.0707,-0.0137 0.13356,-0.009 0.0629,0.005 0.0867,0.0254 0.0677,-0.0582 0.0493,-0.0659 -0.0237,-0.0207 -0.0736,-0.0309 -0.0552,-0.0231 -0.11049,-0.0463 -0.0421,-0.0285 -0.0298,-0.10981 0.0552,0.0231 0.0391,-0.016 -0.0214,-0.0522 -0.008,-0.0575 0.008,-0.0184 0.0968,-0.0244 0.0891,-0.006 0.13355,-0.009 0.005,0.013 0.1205,-0.004 0.12287,-0.0351 0.15432,-0.0328 0.0552,0.0231 -0.0308,0.0736 -0.073,0.0452 -0.06,0.0398 -0.008,0.0184 0.0291,0.0338 0.0368,0.0154 0.0736,0.0308 0.0445,-0.003 0.0814,0.0124 0.0445,-0.003 0.0575,-0.008 0.0279,-0.11819 0.0978,-0.20783 0.0646,-0.1028 -0.0625,-0.26413 0.13057,-0.0535 0.11515,-0.0167 -0.002,0.0314 -0.002,0.10746 0.22368,-0.19844 0.63148,-0.31972 -0.0214,-0.0522 -0.0736,-0.0308 -0.0391,0.016 -0.0837,0.0191 -0.0227,-0.20419 0.16908,-0.14558 -0.0612,-0.11217 -0.13958,-0.08 -0.0784,0.0321 -0.0563,0.16032 -0.0921,-0.0385 -0.16867,-0.11388 -0.0689,-0.0938 -0.0304,-0.18578 0.0707,-0.0137 0.0552,0.0231 -0.002,0.0314 -0.0285,0.0421 0.0582,0.0677 0.0944,0.007 0.0492,-0.0659 0.009,-0.12584 0.0523,-0.0214 0.076,-6.8e-4 0.0368,0.0154 0.0605,0.0361 0.0368,0.0154 0.0736,0.0308 0.0445,-0.003 0.10445,-0.0428 -6.7e-4,-0.076 -0.0736,-0.0308 -0.06,0.0398 -0.0837,0.0191 -0.005,-0.013 -0.003,-0.0445 0.01,-0.0498 -6.8e-4,-0.076 0.002,-0.0314 -0.0421,-0.0285 -0.0314,-0.002 -0.13829,0.0719 -0.0214,-0.0522 0.0178,-0.0682 0.0522,-0.0214 0.0861,-0.0505 0.0386,-0.0921 0.0563,-0.16032 0.0308,-0.0736 0.17273,-0.0251 0.0137,0.0707 -0.0254,0.0867 -0.0391,0.016 -0.073,0.0452 0.0713,0.0623 0.11049,0.0463 0.0468,-0.0344 0.07,-0.0897 0.0362,-0.0605 0.0724,-0.12118 0.0362,-0.0605 0.10682,-0.0743 -0.0421,-0.0284 -0.079,-0.0439 -0.0291,-0.0338 -0.0998,-0.0201 -0.006,-0.0891 0.0254,-0.0867 0.0391,-0.016 0.076,-6.7e-4 0.0498,0.01 0.092,0.0386 0.0552,0.0231 0.0944,0.007 0.0522,-0.0214 0.0546,-0.0529 0.0154,-0.0368 0.0178,-0.0682 0.0101,-0.0498 0.0308,-0.0736 0.0338,-0.0291 0.10446,-0.0428 -0.0689,-0.0938 -0.0589,-0.14363 0.0178,-0.0682 0.0172,-0.14429 0.0921,0.0386 0.13422,0.067 0.0552,0.0231 -0.0435,-0.18044 0.0629,0.005 0.0914,-0.0375 0.0285,-0.0421 0.0439,-0.079 0.0285,-0.0421 0.0546,-0.0529 0.0261,-0.0107 0.0843,0.057 0.0439,-0.079 0.0373,-0.24401 0.0837,-0.0191 0.13592,-0.0405 0.06,-0.0398 0.0463,-0.11049 0.073,-0.0452 0.0475,0.0416 -0.0255,0.0866 0.006,0.0891 0.0575,-0.008 0.07,-0.0896 0.0254,-0.0867 -0.0595,-0.21962 0.092,0.0386 0.10514,0.0332 0.0208,-0.0237 0.0231,-0.0552 -0.003,-0.0445 0.0124,-0.0813 0.0231,-0.0552 0.10683,-0.0742 -0.0214,-0.0522 -0.0659,-0.0493 -0.0314,-0.002 -0.0837,0.0191 -0.0392,0.016 -0.0914,0.0375 -0.0445,0.003 -0.0867,-0.0255 -0.0605,-0.0361 -0.12049,0.004 -0.0523,0.0214 -0.23267,0.0649 -0.10981,0.0298 -0.18578,0.0304 -0.0682,-0.0178 -0.23267,0.0649 -0.013,0.005 -0.0653,0.0268 -0.0445,0.003 -0.0522,0.0214 -0.0254,0.0867 -0.12225,0.11105 -0.0837,0.0191 -0.24274,0.11471 -0.073,0.0452 -0.25514,0.19609 -0.17448,0.13245 -0.25217,0.24058 -0.0493,0.0659 -0.10148,0.0873 -0.0522,0.0214 -0.13294,0.085 -0.0546,0.0529 -0.11151,0.13723 -0.057,0.0843 -0.13465,0.19242 -0.0285,0.0421 -0.0754,0.0766 -0.0391,0.016 -0.0938,0.0689 -0.0416,0.0475 -0.0516,0.0974 0.003,0.0445 -0.0255,0.0866 -0.008,0.0184 -0.0653,0.0268 -0.0498,-0.01 -0.0653,0.0268 -0.01,0.0498 -0.0231,0.0552 -0.013,0.005 -0.0677,0.0582 -0.0599,0.0398 -0.23437,0.17234 -0.16676,0.11405 -0.41012,0.15282 -0.18943,-0.0901 -0.39664,-0.11196 -0.21254,-0.0349 -0.4251,-0.0698 l -0.0803,-0.19586 q -0.0398,-0.06 -0.0998,-0.0201 -0.0653,0.0268 -0.12286,0.0351 0.0617,-0.14726 -0.0405,-0.13592 -0.10746,-0.002 -0.23569,0.0203 -0.0666,-0.12523 -0.012,-0.17808 0.0623,-0.0713 0.15433,-0.0328 -0.0375,-0.0914 -0.082,-0.0884 -0.0445,0.003 -0.0914,0.0375 -0.0468,0.0344 -0.0807,0.0636 -0.0391,0.016 -0.0552,-0.0231 -0.0529,-0.0546 -0.0167,-0.11515 0.0308,-0.0737 0.0884,-0.082 0.0445,-0.003 0.0736,0.0308 0.0237,0.0207 0.0475,0.0415 0.0368,0.0154 0.0682,0.0178 0.0445,-0.003 0.13057,-0.0535 l 0.0749,0.1828 q 0.057,-0.0843 0.006,-0.17036 -0.0375,-0.0914 -0.0957,-0.15905 -0.0505,-0.0861 -0.0773,-0.15135 -0.0321,-0.0784 0.0617,-0.14726 0.0124,-0.0814 0.0178,-0.0682 0.005,0.0131 6.8e-4,0.076 0.003,0.0445 0.004,0.1205 -0.005,0.0629 -0.0124,0.0814 0.0559,0.0991 0.18881,0.0142 0.13294,-0.085 0.22969,-0.10936 -0.0237,-0.0208 -0.0844,-0.057 -0.0605,-0.0362 -0.0558,-0.0991 -0.008,-0.0575 0.0445,-0.003 0.0605,0.0361 0.0421,0.0284 0.0575,-0.008 0.0677,-0.0582 0.005,-0.0629 0.009,-0.12584 0.0124,-0.0813 0.054,-0.12889 0.0415,-0.0475 0.18044,-0.0435 -0.0214,-0.0523 -0.0736,-0.0309 -0.0392,0.016 -0.0968,0.0244 -6.8e-4,-0.076 0.0831,-0.095 0.0914,-0.0375 0.1644,-0.0826 -0.11349,-0.0907 -0.32236,-0.005 -0.006,-0.0891 0.0356,-0.13658 0.0493,-0.0659 0.1092,-0.10569 0.0677,-0.0582 0.12758,-0.098 0.0546,-0.0529 0.0723,-0.12118 0.0861,-0.0505 0.11515,-0.0167 0.0421,0.0285 -0.0101,0.0498 -0.0837,0.0191 -0.10683,0.0743 -0.0284,0.0421 -0.0516,0.0974 -0.0154,0.0368 -0.0439,0.079 -0.0285,0.0421 -0.13058,0.0535 0.0921,0.0386 0.22325,0.061 0.13123,0.0225 0.24336,-0.0388 0.0784,-0.0321 0.005,-0.0629 -0.0605,-0.0361 -0.0144,-0.14661 0.002,-0.0314 0.0445,-0.003 l 0.0475,0.0415 q 0,0 0.0309,-0.0736 0.0385,-0.0921 0.0433,-0.15498 0.0124,-0.0813 -0.0298,-0.1098 -0.0291,-0.0338 -0.1567,0.0642 -0.0481,-0.11752 0.0777,-0.10814 0.1389,0.004 0.17041,0.006 0.0612,0.11217 0.012,0.17808 -0.0362,0.0605 0.0565,0.17509 0.0468,-0.0344 0.07,-0.0897 0.0231,-0.0552 0.0331,-0.10511 0.0231,-0.0552 0.07,-0.0897 0.0415,-0.0475 0.14363,-0.0589 -0.0285,0.0421 -0.002,0.10746 0.0268,0.0653 0.0766,0.0754 0.0498,0.01 -6.8e-4,-0.076 -0.0375,-0.0914 -0.0411,-0.21191 0.073,-0.0452 0.1205,-0.004 0.0421,0.0284 0.10746,0.002 0.0439,-0.079 -0.009,-0.13356 -0.0398,-0.06 -0.098,-0.1276 z m 2.30521,2.09011 q 0.11049,0.0462 0.12354,0.0409 0.0207,-0.0237 -0.0214,-0.0522 -0.0291,-0.0338 -0.10515,-0.0332 -0.0682,-0.0178 -0.15432,0.0328 l 0.0267,0.0652 q -0.0807,0.0636 -0.0754,0.0766 0.013,-0.005 0.06,-0.0398 0.0522,-0.0214 0.14599,-0.0903 z m -0.30505,0.18595 q 0.0452,0.073 0.0696,0.16974 0.0321,0.0784 0.10813,0.0777 -0.003,-0.0445 -0.0191,-0.0837 -0.0214,-0.0522 0.0178,-0.0682 0.0421,0.0284 0.0636,0.0807 0.016,0.0391 0.0682,0.0178 -0.0174,-0.19113 0.16913,-0.1455 -0.0612,-0.11217 -0.11104,-0.12225 -0.0552,-0.0231 -0.10746,-0.002 -0.0522,0.0214 -0.11217,0.0612 -0.0653,0.0268 -0.14662,0.0144 z m -0.2526,0.50001 q 0.0807,-0.0636 0.1205,-0.004 0.0475,0.0415 0.12354,0.0409 0.057,-0.0843 0.0172,-0.14429 -0.0398,-0.06 -0.10279,-0.0647 -0.0682,-0.0178 -0.12821,0.0221 -0.06,0.0398 -0.0302,0.14963 z m 0.63574,-0.12326 q 0.0421,0.0285 0.0707,-0.0137 0.0362,-0.0605 0.0463,-0.1105 0.0178,-0.0682 -0.0114,-0.10211 -0.0291,-0.0338 -0.11514,0.0167 l 0.0268,0.0653 q -0.013,0.005 -0.0124,0.0814 6.7e-4,0.076 -0.005,0.0629 z m -1.85675,1.38609 q 0.002,-0.0314 -0.0321,-0.0784 -0.0268,-0.0653 -0.0689,-0.0938 -0.0291,-0.0338 -0.0682,-0.0177 -0.0261,0.0107 -0.0332,0.10514 0.0415,-0.0475 0.10514,0.0332 0.0766,0.0754 0.0974,0.0516 z m -0.60691,1.6822 q 0.0184,0.008 0.0208,-0.0237 0.0154,-0.0368 0.0124,-0.0814 0.0101,-0.0498 0.007,-0.0944 0.0101,-0.0498 0.0101,-0.0498 0.01,-0.0498 0.0207,-0.0237 0.0184,0.008 -0.0475,-0.0415 0.0237,0.0208 0.003,0.0445 -0.013,0.005 -0.0522,0.0214 -0.0261,0.0107 -0.0468,0.0344 -0.0261,0.0107 -0.008,0.0184 l 0.0653,-0.0268 q -0.002,0.0314 -0.009,0.12585 -0.0124,0.0814 0.0244,0.0968 z m 0.19238,1.06491 q 0.007,-0.0944 0.11685,-0.12418 -6.3e-4,-0.0759 -0.0612,-0.11217 -0.0475,-0.0415 -0.1051,-0.0331 -0.0629,-0.005 -0.10981,0.0298 -0.0468,0.0344 -0.0386,0.0921 0.0653,-0.0268 0.11515,-0.0167 0.0445,-0.003 0.0559,0.0991 -0.0261,0.0107 -0.0285,0.0421 -0.002,0.0314 0.0552,0.0231 z m -0.51882,-0.93114 q 0.0332,-0.10515 0.0309,-0.0736 0.0107,0.0261 0.0114,0.10211 0.008,0.0575 0.0221,0.12821 0.0214,0.0522 0.0814,0.0124 -0.0254,0.0867 -0.0694,0.16567 -0.0362,0.0606 -0.0195,0.17576 -0.0498,-0.0101 -0.0713,-0.0623 -0.0137,-0.0707 -0.0144,-0.14661 0.0124,-0.0814 0.0249,-0.16269 0.007,-0.0944 0.004,-0.1389 z m 0.93531,-2.51826 q 0.0629,0.005 0.13423,0.067 0.0659,0.0493 0.0796,0.11988 0.0268,0.0653 -0.009,0.12585 -0.0415,0.0475 -0.18816,0.0619 -6.7e-4,-0.076 0.07,-0.0896 0.0784,-0.0321 0.0647,-0.10279 -0.003,-0.0445 -0.0766,-0.0754 -0.0736,-0.0308 -0.0743,-0.10683 z m 0.8678,7.84885 q -0.0677,0.0582 -0.0831,0.095 -0.002,0.0314 0.0268,0.0653 0.0291,0.0338 0.0582,0.0677 0.0475,0.0415 0.0666,0.12523 -0.0284,0.0421 -0.0523,0.0214 -0.0237,-0.0207 -0.0345,-0.0469 -0.0214,-0.0522 -0.0659,-0.0492 -0.0314,-0.002 -0.076,6.7e-4 -0.0445,0.003 -0.0814,-0.0124 -0.0314,-0.002 -0.0582,-0.0677 -0.0469,0.0345 -0.0231,0.0552 0.0237,0.0207 0.0498,0.0101 0.0167,0.11515 -0.0546,0.0529 -0.0528,-0.0545 -0.10279,-0.0647 -0.076,6.7e-4 -0.15432,0.0328 -0.0652,0.0267 -0.1205,0.004 -0.0498,-0.0101 -0.0897,-0.07 -0.0267,-0.0652 -0.0636,-0.0807 -0.0368,-0.0154 -0.0814,-0.0124 -0.0445,0.003 -0.0813,-0.0124 -0.0921,-0.0386 -0.15028,-0.10618 -0.0582,-0.0677 -0.13423,-0.067 -0.008,-0.0575 0.0493,-0.0659 0.0706,-0.0137 0.14661,-0.0144 0.0891,-0.006 0.15967,-0.0197 0.0837,-0.0191 0.0884,-0.0819 -0.0951,-0.083 -0.18472,-0.15306 -0.082,-0.0884 -0.25409,0.0126 0.005,-0.0629 0.0439,-0.079 0.0522,-0.0214 0.0385,-0.0921 -0.003,-0.0445 -0.0505,-0.0861 -0.0529,-0.0546 -0.10804,-0.0777 -0.0605,-0.0361 -0.0998,-0.0201 -0.0314,-0.002 -0.0231,0.0552 -0.073,0.0452 -0.0707,0.0137 0.002,-0.0314 0.0124,-0.0814 0.0231,-0.0552 0.0124,-0.0814 -0.003,-0.0445 -0.0814,-0.0124 -0.0144,-0.14661 0.10254,-0.27077 0.0415,-0.0475 0.0599,-0.0398 0.0314,0.002 0.0421,0.0284 0.0237,0.0207 0.0398,0.06 0.0237,0.0208 0.0421,0.0285 0.0498,0.01 0.1205,-0.004 0.0653,-0.0268 0.13591,-0.0405 0.0706,-0.0137 0.1205,-0.004 0.0629,0.005 0.095,0.0831 0.0468,-0.0344 0.0308,-0.0736 -0.0214,-0.0522 -0.0191,-0.0837 0.0498,0.0101 0.14127,-0.0274 0.10446,-0.0428 0.14661,-0.0144 0.0974,0.0516 0.13355,-0.009 0.0492,-0.0659 0.21962,-0.0595 0.0261,-0.0107 0.0237,0.0207 0.0107,0.0261 0.0629,0.005 0.0707,-0.0137 0.10514,0.0332 0.0344,0.0468 0.0713,0.0623 0.10746,0.002 0.2119,-0.0411 0.11752,-0.0481 0.15432,-0.0328 0.0498,0.0101 0.095,0.0831 0.0452,0.073 0.11049,0.0463 0.0968,-0.0244 0.14493,0.0931 0.0482,0.11752 0.18472,0.15306 0.0398,0.0599 -0.0201,0.0998 -0.0546,0.0529 -0.057,0.0843 6.8e-4,0.076 0.0642,0.15668 0.0689,0.0938 0.0696,0.16974 -0.0546,0.0529 -0.0961,0.10035 -0.10919,0.10569 -0.11153,0.13723 -0.0124,0.0814 0.0144,0.14661 0.0267,0.0652 0.0274,0.14127 -0.0522,0.0214 -0.0736,-0.0308 -0.016,-0.0391 -0.0452,-0.073 -0.11988,0.0796 -0.16141,0.12709 -0.0285,0.0421 -0.16501,0.007 -0.0498,-0.0101 -0.0998,-0.0202 -0.0445,0.003 -0.0308,0.0737 -0.12049,0.004 -0.21554,-0.0794 -0.095,-0.0831 -0.0488,-0.19349 z"
           id="path34617"
           style="font-weight:bold;font-size:14.1111px;font-family:Antihero;-inkscape-font-specification:'Antihero Bold';text-align:center;text-anchor:middle;display:inline;fill:#00ffff;fill-rule:evenodd;stroke:#000080;stroke-width:0.2;stroke-dasharray:none" /></g><g
         inkscape:groupmode="layer"
         id="layer5"
         inkscape:label="blush"
         style="display:none"><g
           id="g34280"
           inkscape:label="left"><path
             id="path34277"
             style="display:inline;fill:#e400ff;fill-opacity:1;fill-rule:evenodd;stroke-width:0.187494"
             d="m -347.08358,140.51433 c 0,2.97542 -3.05092,5.98715 -5.45745,6.63198 -2.35604,-0.6313 -5.45745,-3.65656 -5.45745,-6.63198 0,-2.97543 3.31952,-4.20289 5.45745,-1.93944 1.9524,-2.33766 5.45745,-1.03599 5.45745,1.93944 z"
             sodipodi:nodetypes="scscs" /></g><g
           id="g34283"
           inkscape:label="right"><path
             id="path34275"
             style="display:inline;fill:#e400ff;fill-opacity:1;fill-rule:evenodd;stroke-width:0.187494"
             d="m -259.42666,140.51433 c 0,2.97542 -3.05092,5.98715 -5.45745,6.63198 -2.35604,-0.6313 -5.45745,-3.65656 -5.45745,-6.63198 0,-2.97543 3.31952,-4.20289 5.45745,-1.93944 1.9524,-2.33766 5.45745,-1.03599 5.45745,1.93944 z"
             sodipodi:nodetypes="scscs" /></g></g><g
         inkscape:groupmode="layer"
         id="layer15"
         inkscape:label="concerned"
         style="display:none"><path
           id="path31630"
           style="display:inline;fill:#00ffff;fill-rule:evenodd;stroke:#000080;stroke-width:0.9;stroke-dasharray:none"
           d="m -334.03186,154.15785 c 0,-1.40985 3.01231,-7.49856 3.01231,-7.49856 0,0 2.91727,6.06125 2.91727,7.44661 0,1.40987 -0.97013,3.46377 -3.01231,3.39949 -2.04217,-0.0643 -2.91727,-1.96216 -2.91727,-3.34754 z"
           sodipodi:nodetypes="scszs"
           transform="translate(56.253039,-31.715967)" /></g><g
         inkscape:groupmode="layer"
         id="layer4"
         inkscape:label="tears"
         style="display:none"><g
           id="g32395"
           inkscape:label="right"><path
             id="path31974"
             style="display:inline;fill:#00ffff;fill-rule:evenodd;stroke-width:0.205301"
             d="m -288.62008,154.15786 c 0,-1.40985 3.01231,-7.49856 3.01231,-7.49856 0,0 2.91727,6.06125 2.91727,7.44661 0,1.40987 -0.97013,3.46377 -3.01231,3.39949 -2.04217,-0.0643 -2.91727,-1.96216 -2.91727,-3.34754 z"
             sodipodi:nodetypes="scszs" /></g><g
           id="g32406"
           inkscape:label="left"
           style="display:inline;stroke:#000080;stroke-width:0.9;stroke-dasharray:none"
           transform="translate(56.253039,-31.715976)"><path
             id="path35733"
             style="display:inline;fill:#00ffff;fill-rule:evenodd;stroke-width:0.205301"
             d="m -334.03186,154.15785 c 0,-1.40985 3.01231,-7.49856 3.01231,-7.49856 0,0 2.91727,6.06125 2.91727,7.44661 0,1.40987 -0.97013,3.46377 -3.01231,3.39949 -2.04217,-0.0643 -2.91727,-1.96216 -2.91727,-3.34754 z"
             sodipodi:nodetypes="scszs"
             transform="translate(-56.253039,31.715983)" /></g></g></g><g
       inkscape:groupmode="layer"
       id="g4523"
       inkscape:label="brows"
       style="display:inline;stroke-width:0.8;stroke-dasharray:none"
       transform="translate(0.78925716,-0.2953566)"><g
         id="g32276"
         inkscape:label="right"><path
           style="display:inline;opacity:1;fill:none;stroke:#00ffff;stroke-width:1.258;stroke-linecap:round;stroke-dasharray:none"
           d="m -336.25902,127.60248 h 8.37141"
           id="path31976"
           transform="translate(45.641964,-3.1025474)" /></g><g
         id="g28726"
         inkscape:label="left"
         style="display:inline;stroke:#00ffff;stroke-width:0.8;stroke-dasharray:none"
         transform="translate(0.23017474,-3.1025474)"><path
           style="opacity:1;fill:none;stroke:#00ffff;stroke-width:1.258;stroke-linecap:round;stroke-dasharray:none"
           d="m -336.25902,127.60248 h 8.37141"
           id="path4553" /></g></g><g
       inkscape:groupmode="layer"
       id="g4529"
       inkscape:label="eyes"><g
         id="g28720"
         inkscape:label="left"
         transform="translate(-0.61925075,-1.4331377)"><ellipse
           style="fill:none;stroke:#000000;stroke-width:0.876112;stroke-linecap:round;stroke-dasharray:none"
           id="ellipse4525"
           cx="-330.43463"
           cy="138.2379"
           rx="6.1684699"
           ry="7.8704414" /></g><g
         id="g31982"
         inkscape:label="right"
         transform="translate(44.792537,-1.4331289)"><ellipse
           style="fill:none;stroke:#000000;stroke-width:0.876112;stroke-linecap:round;stroke-dasharray:none"
           id="ellipse31980"
           cx="-330.43463"
           cy="138.2379"
           rx="6.1684699"
           ry="7.8704414" /></g></g><g
       inkscape:groupmode="layer"
       id="g4539"
       inkscape:label="ears"><g
         id="g28610"
         inkscape:label="right"><path
           id="path4537"
           style="fill:#88cff4;fill-opacity:1;stroke:#000000;stroke-width:1.258;stroke-linecap:round;stroke-dasharray:none"
           inkscape:label="path2083"
           d="m -245.73371,129.25226 c 0,0 -2.48554,-3.72233 -5.32551,-4.28129 -2.22455,-0.43783 -4.43556,1.66364 -4.997,13.76354 -0.0682,1.30342 -0.14641,4.95196 0.20771,8.10635 0.49589,4.41719 1.59777,8.44573 2.63516,8.81384 2.51056,0.89086 6.62687,-2.48514 7.08304,-3.49274 m -3.05005,-11.69591 c 0,6.4038 1.0052,11.35618 2.85273,11.76587 1.311,0.29072 3.64526,-5.58504 3.64526,-11.98884 0,-6.4038 -1.82873,-11.12278 -3.72114,-11.12277 -1.89241,-1e-5 -2.77684,4.94194 -2.77685,11.34574 z" /></g><g
         id="g28613"
         inkscape:label="left"><path
           id="path4535"
           style="fill:#87cff4;fill-opacity:1;stroke:#000000;stroke-width:1.258;stroke-linecap:round;stroke-dasharray:none"
           inkscape:label="path2083"
           d="m -370.97509,129.25226 c 0,0 2.48554,-3.72233 5.32551,-4.28129 2.22455,-0.43783 4.43556,1.66364 4.997,13.76354 0.0682,1.30342 0.14641,4.95196 -0.20771,8.10635 -0.49589,4.41719 -1.59777,8.44573 -2.63516,8.81384 -2.51056,0.89086 -6.62687,-2.48514 -7.08304,-3.49274 m 3.05005,-11.69591 c 0,6.4038 -1.0052,11.35618 -2.85273,11.76587 -1.311,0.29072 -3.64526,-5.58504 -3.64526,-11.98884 0,-6.4038 1.82873,-11.12278 3.72114,-11.12277 1.89241,-1e-5 2.77684,4.94194 2.77685,11.34574 z" /></g></g><g
       inkscape:groupmode="layer"
       id="g4549"
       inkscape:label="signal"><path
         style="display:inline;opacity:1;fill:#00ffff;stroke:#000000;stroke-width:2.5;stroke-linecap:round;stroke-dasharray:none"
         d="m -303.36695,85.324791 a 5.0696955,4.9339004 0 0 1 -5.0697,4.9339 5.0696955,4.9339004 0 0 1 -5.06969,-4.9339 5.0696955,4.9339004 0 0 1 5.06969,-4.9339 5.0696955,4.9339004 0 0 1 5.0697,4.9339 z"
         id="path4547" /><path
         style="opacity:1;fill:none;stroke:#000000;stroke-width:1.977;stroke-linecap:round"
         d="m -308.52718,91.163991 v 9.686739"
         id="path27138" /></g></g></svg>
